<svg width="52" height="30" viewBox="0 0 52 30" fill="none" xmlns="http://www.w3.org/2000/svg">
<path d="M2.92639 12.7195C1.82182 12.7195 0.926392 13.6149 0.926392 14.7195C0.926392 15.8241 1.82182 16.7195 2.92639 16.7195L2.92639 12.7195ZM51.3406 16.1337C52.1217 15.3527 52.1217 14.0863 51.3406 13.3053L38.6127 0.57735C37.8316 -0.203699 36.5653 -0.203699 35.7843 0.57735C35.0032 1.3584 35.0032 2.62473 35.7843 3.40578L47.098 14.7195L35.7843 26.0332C35.0032 26.8142 35.0032 28.0806 35.7843 28.8616C36.5653 29.6427 37.8316 29.6427 38.6127 28.8616L51.3406 16.1337ZM2.92639 16.7195L49.9264 16.7195L49.9264 12.7195L2.92639 12.7195L2.92639 16.7195Z" fill="#FF0000"/>
</svg>
