<svg width="36" height="36" viewBox="0 0 36 36" fill="none" xmlns="http://www.w3.org/2000/svg">
<path d="M32.5044 24.4888H12.1504L13.1724 22.4072L30.1528 22.3765C30.7271 22.3765 31.2192 21.9663 31.3218 21.3989L33.6733 8.23633C33.7349 7.89111 33.6426 7.53564 33.417 7.26563C33.3055 7.13274 33.1664 7.02569 33.0094 6.95191C32.8525 6.87814 32.6813 6.8394 32.5078 6.83838L10.9063 6.7666L10.7217 5.89844C10.6055 5.34473 10.1064 4.94141 9.53906 4.94141H4.2583C3.93831 4.94141 3.63142 5.06852 3.40515 5.29479C3.17888 5.52107 3.05176 5.82795 3.05176 6.14795C3.05176 6.46794 3.17888 6.77483 3.40515 7.0011C3.63142 7.22737 3.93831 7.35449 4.2583 7.35449H8.56153L9.36817 11.1895L11.354 20.8042L8.79737 24.9775C8.6646 25.1567 8.58463 25.3695 8.5665 25.5918C8.54838 25.8141 8.59283 26.037 8.69483 26.2354C8.8999 26.6421 9.31348 26.8984 9.77149 26.8984H11.918C11.4604 27.5062 11.2132 28.2465 11.2139 29.0073C11.2139 30.9419 12.7861 32.5142 14.7207 32.5142C16.6553 32.5142 18.2275 30.9419 18.2275 29.0073C18.2275 28.2451 17.9746 27.5034 17.5234 26.8984H23.0298C22.5722 27.5062 22.325 28.2465 22.3257 29.0073C22.3257 30.9419 23.898 32.5142 25.8325 32.5142C27.7671 32.5142 29.3394 30.9419 29.3394 29.0073C29.3394 28.2451 29.0864 27.5034 28.6353 26.8984H32.5078C33.1709 26.8984 33.7144 26.3584 33.7144 25.6919C33.7124 25.3722 33.584 25.0663 33.3574 24.8409C33.1307 24.6155 32.8241 24.4889 32.5044 24.4888V24.4888ZM11.4087 9.14551L31.0894 9.21045L29.1616 20.0044L13.7022 20.0317L11.4087 9.14551ZM14.7207 30.0874C14.126 30.0874 13.6406 29.6021 13.6406 29.0073C13.6406 28.4126 14.126 27.9272 14.7207 27.9272C15.3154 27.9272 15.8008 28.4126 15.8008 29.0073C15.8008 29.2938 15.687 29.5685 15.4844 29.7711C15.2819 29.9736 15.0072 30.0874 14.7207 30.0874V30.0874ZM25.8325 30.0874C25.2378 30.0874 24.7524 29.6021 24.7524 29.0073C24.7524 28.4126 25.2378 27.9272 25.8325 27.9272C26.4273 27.9272 26.9126 28.4126 26.9126 29.0073C26.9126 29.2938 26.7988 29.5685 26.5963 29.7711C26.3937 29.9736 26.119 30.0874 25.8325 30.0874V30.0874Z" fill="white"/>
</svg>
