<svg width="42" height="43" viewBox="0 0 42 43" fill="none" xmlns="http://www.w3.org/2000/svg">
<path d="M19.25 22.9644C19.7458 22.9644 20.1618 22.7964 20.4978 22.4604C20.8338 22.1244 21.0012 21.709 21 21.2144C20.9988 20.7197 20.8308 20.3044 20.496 19.9684C20.1612 19.6324 19.7458 19.4644 19.25 19.4644C18.7542 19.4644 18.3388 19.6324 18.004 19.9684C17.6692 20.3044 17.5012 20.7197 17.5 21.2144C17.4988 21.709 17.6668 22.1249 18.004 22.4621C18.3412 22.7993 18.7565 22.9667 19.25 22.9644ZM12.25 36.9644V33.4644L22.75 31.7144V12.2456C22.75 11.8081 22.6187 11.4144 22.3562 11.0644C22.0937 10.7144 21.7583 10.5102 21.35 10.4519L12.25 8.96436V5.46436L21.875 7.03936C23.1583 7.27269 24.2083 7.87061 25.025 8.83311C25.8417 9.79561 26.25 10.9185 26.25 12.2019V34.6019L12.25 36.9644ZM5.25 36.9644V33.4644H8.75V8.96436C8.75 7.97269 9.093 7.14144 9.779 6.47061C10.465 5.79977 11.2887 5.46436 12.25 5.46436H29.75C30.7417 5.46436 31.5729 5.79977 32.2437 6.47061C32.9146 7.14144 33.25 7.97269 33.25 8.96436V33.4644H36.75V36.9644H5.25ZM12.25 33.4644H29.75V8.96436H12.25V33.4644Z" fill="white"/>
</svg>
