<svg width="26" height="19" viewBox="0 0 26 19" fill="none" xmlns="http://www.w3.org/2000/svg">
<path d="M12.9846 14.1113C12.1775 14.1113 11.3704 13.8465 10.6819 13.31L0.484619 5.3808V16.455C0.484619 17.749 1.53394 18.7988 2.82837 18.7988H23.1409C24.4353 18.7988 25.4846 17.7495 25.4846 16.455V5.3808L15.2893 13.3154C14.6008 13.8476 13.7903 14.1113 12.9846 14.1113ZM1.28003 4.01849L11.6414 12.08C12.4319 12.6953 13.5393 12.6953 14.3298 12.08L24.6912 4.01849C25.1477 3.62787 25.4846 3.02728 25.4846 2.39252C25.4846 1.09808 24.4348 0.0487671 23.1409 0.0487671H2.82837C1.53394 0.0487671 0.484619 1.09808 0.484619 2.39252C0.484619 3.02728 0.778076 3.62787 1.28003 4.01849Z" fill="white"/>
</svg>
