<svg width="76" height="76" viewBox="0 0 76 76" fill="none" xmlns="http://www.w3.org/2000/svg">
<g clip-path="url(#clip0_623_2204)">
<path d="M53.9681 55.3842L51.2674 52.7542C49.2926 53.5701 46.9428 52.9795 45.6101 51.1865C44.5993 49.827 44.4203 48.1071 44.9807 46.6328L40.1149 41.895C39.0057 40.8149 37.2904 40.6619 36.0075 41.5284L27.8801 47.0183L24.427 33.694L31.7992 22.6358C32.2824 21.9109 32.3443 20.9841 31.9619 20.2013C31.5796 19.4187 30.8103 18.8978 29.9414 18.8335L20.1254 18.1064C21.0669 19.1032 21.7376 20.342 22.0474 21.6883C22.1611 22.1827 22.2255 22.6808 22.2424 23.1765L25.3937 23.4099L21.039 29.9418L12.0597 32.2246L15.2615 35.0762L6.55569 30.0842L8.29643 28.0448C7.66166 27.1908 7.20222 26.2087 6.96118 25.1615C6.73205 24.1664 6.70192 23.1567 6.86124 22.1784L0.921624 29.1382C0.449693 29.6909 0.247899 30.4249 0.370181 31.1413C0.492462 31.8576 0.926915 32.4828 1.55552 32.8478L13.0753 39.5336L10.6448 38.9461L14.4603 55.3917C14.8483 57.0643 16.0346 58.439 17.6325 59.0677C19.2303 59.6966 21.0352 59.499 22.4592 58.5394L37.4613 48.4303L49.4099 60.0649C50.7028 61.3238 52.7713 61.2958 54.0296 60.0037C55.2882 58.711 55.2608 56.6428 53.9681 55.3842Z" fill="white"/>
<path d="M14.5047 29.0945C17.6359 29.0945 20.1742 26.5562 20.1742 23.425C20.1742 20.2939 17.6359 17.7556 14.5047 17.7556C11.3735 17.7556 8.83521 20.2939 8.83521 23.425C8.83521 26.5562 11.3735 29.0945 14.5047 29.0945Z" fill="white"/>
<path d="M57.0628 26.771C60.3673 26.771 63.0462 24.0922 63.0462 20.7876C63.0462 17.4831 60.3673 14.8042 57.0628 14.8042C53.7582 14.8042 51.0793 17.4831 51.0793 20.7876C51.0793 24.0922 53.7582 26.771 57.0628 26.771Z" fill="white"/>
<path d="M75.4032 45.4071C74.9235 43.5723 74.6939 42.7319 71.2174 30.1078C70.5474 27.674 68.0184 26.2541 65.5926 26.948L61.5776 28.096C59.153 28.7893 57.7579 31.3285 58.4719 33.7462L58.7712 34.7596L61.1928 32.207L57.0741 39.2868L47.8283 46.1599C46.6268 47.0532 46.3769 48.7511 47.27 49.9528C48.163 51.1543 49.8612 51.4043 51.0629 50.5111L60.7549 43.3062C61.0494 43.0872 61.2963 42.8109 61.4808 42.4939L65.8795 34.9329L63.2685 43.534C63.0456 44.2683 62.5729 44.5323 61.9889 44.9663L54.5939 50.4635C54.9249 50.8496 54.0364 50.138 67.5237 60.321C68.9577 61.4038 70.9976 61.1186 72.0802 59.685C73.1629 58.2512 72.8779 56.2113 71.4442 55.1286L65.442 50.5968L72.7271 49.7037C74.7731 49.4528 76.0858 47.3777 75.4032 45.4071Z" fill="white"/>
</g>
<defs>
<clipPath id="clip0_623_2204">
<rect width="75.25" height="75.25" fill="white" transform="translate(0.335205 0.272705)"/>
</clipPath>
</defs>
</svg>
