<svg width="43" height="43" viewBox="0 0 43 43" fill="none" xmlns="http://www.w3.org/2000/svg">
<path d="M25.8744 9.46436C25.8744 10.6247 25.4135 11.7375 24.593 12.5579C23.7726 13.3784 22.6598 13.8394 21.4995 13.8394C20.3391 13.8394 19.2263 13.3784 18.4059 12.5579C17.5854 11.7375 17.1245 10.6247 17.1245 9.46436C17.1245 8.30403 17.5854 7.19123 18.4059 6.37076C19.2263 5.55029 20.3391 5.08936 21.4995 5.08936C22.6598 5.08936 23.7726 5.55029 24.593 6.37076C25.4135 7.19123 25.8744 8.30403 25.8744 9.46436ZM27.6244 38.3394C27.6244 38.5714 27.5323 38.794 27.3682 38.9581C27.2041 39.1222 26.9815 39.2144 26.7494 39.2144H11.7485C11.2052 39.2143 10.6768 39.0373 10.2432 38.7101C9.80962 38.3829 9.49444 37.9233 9.34541 37.401C9.19637 36.8786 9.2216 36.3219 9.41727 35.8152C9.61294 35.3084 9.9684 34.8792 10.4298 34.5926L15.0533 31.7209C15.4325 31.4853 15.7454 31.157 15.9623 30.7669C16.1793 30.3767 16.2931 29.9377 16.2932 29.4914V28.7144H18.3705C19.2986 28.7142 20.1887 28.3453 20.845 27.6889L21.4995 27.0352L22.1531 27.6889C22.4782 28.0141 22.8643 28.2721 23.2891 28.448C23.714 28.624 24.1694 28.7145 24.6293 28.7144H26.7494V29.4949C26.7496 29.9399 26.8629 30.3776 27.0787 30.7669C27.2945 31.1561 27.6058 31.4841 27.9832 31.72L32.5734 34.5891C33.0346 34.877 33.3894 35.3072 33.5843 35.8146C33.7792 36.3221 33.8035 36.8792 33.6537 37.4018C33.5038 37.9243 33.1879 38.3838 32.7537 38.7108C32.3194 39.0379 31.7905 39.2146 31.2469 39.2144H29.2257C29.322 38.9405 29.3744 38.6456 29.3744 38.3394V38.1206C29.3743 37.4848 29.1435 36.8707 28.7248 36.3922C28.306 35.9138 27.7279 35.6036 27.0977 35.5192L15.5346 33.9722C15.3064 33.9451 15.0767 34.0089 14.8952 34.1496C14.7136 34.2904 14.5947 34.497 14.5641 34.7247C14.5336 34.9525 14.5938 35.1831 14.7318 35.3668C14.8699 35.5504 15.0746 35.6725 15.3018 35.7065L26.8658 37.2535C27.0758 37.2817 27.2685 37.3851 27.408 37.5446C27.5475 37.704 27.6244 37.9087 27.6244 38.1206V38.3394ZM23.3912 26.4516L22.3745 25.4349V22.1606C22.504 22.2359 22.6265 22.3286 22.7367 22.4389L24.3808 24.0839C24.545 24.2476 24.7675 24.3395 24.9994 24.3394H27.6244C27.7735 24.3393 27.9201 24.3011 28.0503 24.2285C28.1805 24.1558 28.29 24.0511 28.3684 23.9243C28.4467 23.7974 28.4914 23.6527 28.4981 23.5037C28.5048 23.3548 28.4733 23.2066 28.4067 23.0732L27.5317 21.3232C27.4826 21.2168 27.4125 21.1214 27.3258 21.0426C27.2391 20.9638 27.1374 20.9032 27.0269 20.8644C26.9163 20.8257 26.799 20.8095 26.6821 20.8169C26.5651 20.8243 26.4509 20.8551 26.346 20.9075C26.2412 20.96 26.148 21.0329 26.0719 21.122C25.9958 21.2111 25.9384 21.3146 25.9031 21.4263C25.8677 21.5381 25.8552 21.6557 25.8662 21.7724C25.8772 21.8891 25.9116 22.0023 25.9672 22.1055L26.2087 22.5894H25.3617L23.9739 21.2016C23.3176 20.5455 22.4275 20.1769 21.4995 20.1769C20.5714 20.1769 19.6813 20.5455 19.025 21.2016L17.6372 22.5894H16.7902L17.0317 22.1055C17.0873 22.0023 17.1217 21.8891 17.1327 21.7724C17.1437 21.6557 17.1312 21.5381 17.0958 21.4263C17.0605 21.3146 17.0031 21.2111 16.927 21.122C16.8509 21.0329 16.7577 20.96 16.6529 20.9075C16.548 20.8551 16.4338 20.8243 16.3168 20.8169C16.1999 20.8095 16.0826 20.8257 15.972 20.8644C15.8615 20.9032 15.7598 20.9638 15.6731 21.0426C15.5864 21.1214 15.5163 21.2168 15.4672 21.3232L14.5922 23.0732C14.5256 23.2066 14.4941 23.3548 14.5008 23.5037C14.5075 23.6527 14.5522 23.7974 14.6305 23.9243C14.7089 24.0511 14.8184 24.1558 14.9486 24.2285C15.0788 24.3011 15.2254 24.3393 15.3745 24.3394H17.9995C18.2315 24.3393 18.454 24.2471 18.6181 24.083L20.2622 22.4389C20.3733 22.3286 20.495 22.2359 20.6245 22.1606V25.4349L19.6077 26.4516C19.2796 26.7798 18.8345 26.9643 18.3705 26.9644H13.0872C12.8026 26.9644 12.5223 26.895 12.2707 26.7622C12.019 26.6294 11.8034 26.4373 11.6428 26.2024C11.4821 25.9675 11.3811 25.697 11.3486 25.4143C11.3161 25.1316 11.353 24.8452 11.4562 24.58L14.0847 17.8206C14.3403 17.1634 14.7886 16.5987 15.3706 16.2005C15.9527 15.8024 16.6415 15.5893 17.3467 15.5894H25.6522C26.3574 15.5893 27.0462 15.8024 27.6283 16.2005C28.2103 16.5987 28.6586 17.1634 28.9142 17.8206L31.5436 24.58C31.6468 24.8453 31.6837 25.1319 31.6511 25.4147C31.6185 25.6976 31.5174 25.9682 31.3565 26.2031C31.1956 26.438 30.9799 26.6301 30.728 26.7628C30.476 26.8955 30.1955 26.9646 29.9108 26.9644H24.6276C24.1635 26.9643 23.7184 26.7798 23.3903 26.4516" fill="white"/>
</svg>
