<svg width="234" height="53" viewBox="0 0 234 53" fill="none" xmlns="http://www.w3.org/2000/svg">
<path d="M62.4323 37.5244C62.227 37.5244 62.059 37.4591 61.9283 37.3284C61.7977 37.1978 61.7323 37.0298 61.7323 36.8244V18.6244C61.7323 18.4191 61.7977 18.2511 61.9283 18.1204C62.059 17.9898 62.227 17.9244 62.4323 17.9244H75.2843C75.4897 17.9244 75.6577 17.9898 75.7883 18.1204C75.9377 18.2511 76.0123 18.4191 76.0123 18.6244V21.4524C76.0123 21.6578 75.9377 21.8258 75.7883 21.9564C75.6577 22.0871 75.4897 22.1524 75.2843 22.1524H66.6603V26.2684H74.7243C74.9297 26.2684 75.0977 26.3431 75.2283 26.4924C75.3777 26.6231 75.4523 26.7911 75.4523 26.9964V29.7964C75.4523 29.9831 75.3777 30.1511 75.2283 30.3004C75.0977 30.4311 74.9297 30.4964 74.7243 30.4964H66.6603V36.8244C66.6603 37.0298 66.595 37.1978 66.4643 37.3284C66.3337 37.4591 66.1657 37.5244 65.9603 37.5244H62.4323ZM79.7136 37.5244C79.5083 37.5244 79.3403 37.4591 79.2096 37.3284C79.0789 37.1978 79.0136 37.0298 79.0136 36.8244V18.6244C79.0136 18.4191 79.0789 18.2511 79.2096 18.1204C79.3403 17.9898 79.5083 17.9244 79.7136 17.9244H83.4656C83.6709 17.9244 83.8389 17.9898 83.9696 18.1204C84.1003 18.2511 84.1656 18.4191 84.1656 18.6244V36.8244C84.1656 37.0298 84.1003 37.1978 83.9696 37.3284C83.8389 37.4591 83.6709 37.5244 83.4656 37.5244H79.7136ZM93.1037 37.5244C92.8984 37.5244 92.7304 37.4591 92.5997 37.3284C92.469 37.1978 92.4037 37.0298 92.4037 36.8244V22.3204H87.4197C87.2144 22.3204 87.0464 22.2551 86.9157 22.1244C86.785 21.9751 86.7197 21.8071 86.7197 21.6204V18.6244C86.7197 18.4191 86.785 18.2511 86.9157 18.1204C87.0464 17.9898 87.2144 17.9244 87.4197 17.9244H102.484C102.689 17.9244 102.857 17.9898 102.988 18.1204C103.118 18.2511 103.184 18.4191 103.184 18.6244V21.6204C103.184 21.8071 103.118 21.9751 102.988 22.1244C102.857 22.2551 102.689 22.3204 102.484 22.3204H97.4997V36.8244C97.4997 37.0298 97.4344 37.1978 97.3037 37.3284C97.173 37.4591 97.005 37.5244 96.7997 37.5244H93.1037ZM106.428 37.5244C106.223 37.5244 106.055 37.4591 105.924 37.3284C105.794 37.1978 105.728 37.0298 105.728 36.8244V18.6244C105.728 18.4191 105.794 18.2511 105.924 18.1204C106.055 17.9898 106.223 17.9244 106.428 17.9244H109.956C110.162 17.9244 110.33 17.9898 110.46 18.1204C110.591 18.2511 110.656 18.4191 110.656 18.6244V24.8404L115.836 18.4564C115.911 18.3444 116.032 18.2324 116.2 18.1204C116.387 17.9898 116.63 17.9244 116.928 17.9244H120.96C121.128 17.9244 121.268 17.9898 121.38 18.1204C121.492 18.2324 121.548 18.3631 121.548 18.5124C121.548 18.6431 121.511 18.7551 121.436 18.8484L114.744 27.3044L121.968 36.6004C122.043 36.6751 122.08 36.7871 122.08 36.9364C122.08 37.0858 122.015 37.2258 121.884 37.3564C121.772 37.4684 121.642 37.5244 121.492 37.5244H117.32C116.984 37.5244 116.723 37.4498 116.536 37.3004C116.368 37.1511 116.256 37.0391 116.2 36.9644L110.656 30.0484V36.8244C110.656 37.0298 110.591 37.1978 110.46 37.3284C110.33 37.4591 110.162 37.5244 109.956 37.5244H106.428ZM124.967 37.5244C124.762 37.5244 124.594 37.4591 124.463 37.3284C124.333 37.1978 124.267 37.0298 124.267 36.8244V18.6244C124.267 18.4191 124.333 18.2511 124.463 18.1204C124.594 17.9898 124.762 17.9244 124.967 17.9244H128.719C128.925 17.9244 129.093 17.9898 129.223 18.1204C129.354 18.2511 129.419 18.4191 129.419 18.6244V36.8244C129.419 37.0298 129.354 37.1978 129.223 37.3284C129.093 37.4591 128.925 37.5244 128.719 37.5244H124.967ZM134.046 37.5244C133.84 37.5244 133.672 37.4591 133.542 37.3284C133.411 37.1978 133.346 37.0298 133.346 36.8244V18.6244C133.346 18.4191 133.411 18.2511 133.542 18.1204C133.672 17.9898 133.84 17.9244 134.046 17.9244H137.014C137.331 17.9244 137.555 17.9991 137.686 18.1484C137.835 18.2791 137.928 18.3818 137.966 18.4564L144.798 29.2364V18.6244C144.798 18.4191 144.863 18.2511 144.994 18.1204C145.124 17.9898 145.292 17.9244 145.498 17.9244H148.858C149.063 17.9244 149.231 17.9898 149.362 18.1204C149.492 18.2511 149.558 18.4191 149.558 18.6244V36.8244C149.558 37.0111 149.492 37.1791 149.362 37.3284C149.231 37.4591 149.063 37.5244 148.858 37.5244H145.862C145.563 37.5244 145.339 37.4498 145.19 37.3004C145.059 37.1511 144.975 37.0484 144.938 36.9924L138.106 26.6324V36.8244C138.106 37.0298 138.04 37.1978 137.91 37.3284C137.779 37.4591 137.611 37.5244 137.406 37.5244H134.046ZM167.468 37.8044C165.694 37.8044 164.173 37.5151 162.904 36.9364C161.653 36.3578 160.673 35.5084 159.964 34.3884C159.273 33.2684 158.89 31.8778 158.816 30.2164C158.797 29.4511 158.788 28.6298 158.788 27.7524C158.788 26.8751 158.797 26.0351 158.816 25.2324C158.89 23.6084 159.282 22.2364 159.992 21.1164C160.701 19.9778 161.69 19.1191 162.96 18.5404C164.229 17.9431 165.732 17.6444 167.468 17.6444C168.7 17.6444 169.838 17.8031 170.884 18.1204C171.929 18.4191 172.844 18.8671 173.628 19.4644C174.412 20.0431 175.018 20.7524 175.448 21.5924C175.896 22.4138 176.129 23.3471 176.148 24.3924C176.166 24.5604 176.11 24.7004 175.98 24.8124C175.868 24.9244 175.728 24.9804 175.56 24.9804H171.78C171.537 24.9804 171.35 24.9338 171.22 24.8404C171.089 24.7284 170.977 24.5324 170.884 24.2524C170.622 23.2631 170.193 22.5911 169.596 22.2364C169.017 21.8631 168.298 21.6764 167.44 21.6764C166.413 21.6764 165.601 21.9658 165.004 22.5444C164.406 23.1044 164.08 24.0471 164.024 25.3724C163.968 26.9031 163.968 28.4711 164.024 30.0764C164.08 31.4018 164.406 32.3538 165.004 32.9324C165.601 33.4924 166.413 33.7724 167.44 33.7724C168.298 33.7724 169.026 33.5858 169.624 33.2124C170.221 32.8391 170.641 32.1671 170.884 31.1964C170.958 30.9164 171.061 30.7298 171.192 30.6364C171.341 30.5244 171.537 30.4684 171.78 30.4684H175.56C175.728 30.4684 175.868 30.5244 175.98 30.6364C176.11 30.7484 176.166 30.8884 176.148 31.0564C176.129 32.1018 175.896 33.0444 175.448 33.8844C175.018 34.7058 174.412 35.4151 173.628 36.0124C172.844 36.5911 171.929 37.0391 170.884 37.3564C169.838 37.6551 168.7 37.8044 167.468 37.8044ZM179.792 37.5244C179.586 37.5244 179.418 37.4591 179.288 37.3284C179.157 37.1978 179.092 37.0298 179.092 36.8244V18.6244C179.092 18.4191 179.157 18.2511 179.288 18.1204C179.418 17.9898 179.586 17.9244 179.792 17.9244H183.488C183.674 17.9244 183.833 17.9898 183.964 18.1204C184.113 18.2511 184.188 18.4191 184.188 18.6244V33.2964H192.644C192.849 33.2964 193.017 33.3711 193.148 33.5204C193.297 33.6511 193.372 33.8191 193.372 34.0244V36.8244C193.372 37.0298 193.297 37.1978 193.148 37.3284C193.017 37.4591 192.849 37.5244 192.644 37.5244H179.792ZM203.647 37.8044C201.967 37.8044 200.493 37.5338 199.223 36.9924C197.973 36.4324 197.002 35.5831 196.311 34.4444C195.621 33.2871 195.275 31.8218 195.275 30.0484V18.6244C195.275 18.4191 195.341 18.2511 195.471 18.1204C195.602 17.9898 195.77 17.9244 195.975 17.9244H199.587C199.793 17.9244 199.961 17.9898 200.091 18.1204C200.222 18.2511 200.287 18.4191 200.287 18.6244V30.0204C200.287 31.2338 200.577 32.1484 201.155 32.7644C201.753 33.3618 202.583 33.6604 203.647 33.6604C204.693 33.6604 205.505 33.3618 206.083 32.7644C206.681 32.1484 206.979 31.2338 206.979 30.0204V18.6244C206.979 18.4191 207.045 18.2511 207.175 18.1204C207.325 17.9898 207.493 17.9244 207.679 17.9244H211.319C211.506 17.9244 211.665 17.9898 211.795 18.1204C211.945 18.2511 212.019 18.4191 212.019 18.6244V30.0484C212.019 31.8218 211.674 33.2871 210.983 34.4444C210.293 35.5831 209.322 36.4324 208.071 36.9924C206.821 37.5338 205.346 37.8044 203.647 37.8044ZM216.432 37.5244C216.227 37.5244 216.059 37.4591 215.928 37.3284C215.798 37.1978 215.732 37.0298 215.732 36.8244V18.6244C215.732 18.4191 215.798 18.2511 215.928 18.1204C216.059 17.9898 216.227 17.9244 216.432 17.9244H224.972C226.578 17.9244 227.894 18.1484 228.92 18.5964C229.947 19.0444 230.703 19.6884 231.188 20.5284C231.692 21.3498 231.944 22.3298 231.944 23.4684C231.944 24.1404 231.814 24.7378 231.552 25.2604C231.31 25.7644 231.002 26.1844 230.628 26.5204C230.274 26.8564 229.938 27.0991 229.62 27.2484C230.33 27.5844 230.955 28.1351 231.496 28.9004C232.056 29.6658 232.336 30.5618 232.336 31.5884C232.336 32.8204 232.056 33.8844 231.496 34.7804C230.955 35.6578 230.152 36.3391 229.088 36.8244C228.043 37.2911 226.755 37.5244 225.224 37.5244H216.432ZM220.744 33.8844H224.664C225.467 33.8844 226.074 33.6511 226.484 33.1844C226.895 32.7178 227.1 32.1858 227.1 31.5884C227.1 30.9351 226.886 30.3844 226.456 29.9364C226.046 29.4884 225.448 29.2644 224.664 29.2644H220.744V33.8844ZM220.744 25.7084H224.412C225.178 25.7084 225.747 25.5124 226.12 25.1204C226.512 24.7284 226.708 24.2244 226.708 23.6084C226.708 23.0111 226.512 22.5258 226.12 22.1524C225.747 21.7604 225.178 21.5644 224.412 21.5644H220.744V25.7084Z" fill="url(#paint0_linear_623_2234)"/>
<g clip-path="url(#clip0_623_2234)">
<path d="M5.82373 9.34186V11.1926H48.6807V9.34186H5.82373Z" fill="#FF0000" fill-opacity="0.5"/>
<path d="M26.7783 12.1285C24.7379 12.1285 23.0631 13.8034 23.0631 15.8437C23.0631 17.8843 24.7379 19.559 26.7783 19.559C28.8187 19.559 30.4799 17.884 30.4799 15.8437C30.4799 13.8034 28.8188 12.1285 26.7783 12.1285Z" fill="#FF0000"/>
<path d="M26.7784 13.9793C27.815 13.9793 28.6292 14.807 28.6292 15.8437C28.6292 16.8805 27.815 17.6945 26.7784 17.6945C25.7416 17.6945 24.9139 16.8804 24.9139 15.8437C24.9139 14.8071 25.7418 13.9793 26.7784 13.9793Z" fill="#380505" fill-opacity="0.5"/>
<path d="M36.9625 8.41327V10.264H48.5898V8.41327H36.9625Z" fill="#FF0000"/>
<path d="M1.68652 6.55208C1.17372 6.55998 0.764445 6.98236 0.772454 7.49517V11.1843C0.764794 11.6971 1.1743 12.119 1.6871 12.1267C2.19991 12.1343 2.62194 11.7249 2.62961 11.2121C2.62972 11.2028 2.62972 11.1936 2.62961 11.1843V7.49517C2.63761 6.98236 2.22846 6.55998 1.71554 6.55208C1.70591 6.55185 1.69615 6.55185 1.68652 6.55208Z" fill="#FF0000"/>
<path d="M5.40088 2.83778C4.88807 2.84568 4.4788 3.26795 4.48681 3.78087V14.8986C4.48054 15.4114 4.8912 15.8324 5.40401 15.8385C5.91682 15.8449 6.33769 15.4341 6.34396 14.9213C6.34408 14.9139 6.34408 14.9061 6.34396 14.8987V3.78098C6.35197 3.26818 5.94282 2.84591 5.42989 2.8379C5.42026 2.83767 5.41051 2.83767 5.40088 2.83778Z" fill="#FF0000"/>
<path d="M51.8581 6.55208C52.3709 6.55998 52.7802 6.98236 52.7722 7.49517V11.1843C52.7798 11.6971 52.3703 12.119 51.8574 12.1267C51.3446 12.1343 50.9227 11.7247 50.915 11.2119C50.9149 11.2026 50.9149 11.1936 50.915 11.1843V7.49517C50.907 6.98236 51.3162 6.55998 51.8291 6.55208C51.8387 6.55185 51.8484 6.55185 51.8581 6.55208Z" fill="#FF0000"/>
<path d="M48.1439 2.83778C48.6567 2.84568 49.066 3.26795 49.058 3.78087V14.8986C49.0642 15.4114 48.6536 15.8324 48.1407 15.8385C47.6279 15.8449 47.2071 15.4344 47.2008 14.9213C47.2007 14.9139 47.2007 14.9061 47.2008 14.8987V3.78098C47.1928 3.26818 47.6019 2.84591 48.1149 2.8379C48.1245 2.83767 48.1341 2.83767 48.1439 2.83778Z" fill="#FF0000"/>
<path d="M13.6449 8.86585C13.1372 8.93839 12.7844 9.40883 12.857 9.91665C12.8619 9.95066 12.8686 9.9842 12.8772 10.0175L14.728 17.914C14.7657 18.0852 14.8511 18.242 14.9744 18.3667L20.3484 23.7407L25.8596 49.4592C25.9573 49.9627 26.4447 50.2917 26.9482 50.194C27.32 50.1217 27.6108 49.831 27.6829 49.4592L33.1941 23.7407L38.5681 18.3667C38.6916 18.2423 38.7772 18.0851 38.8152 17.914L40.6797 10.0175C40.8019 9.51899 40.4967 9.0157 39.9982 8.89348C39.4997 8.77126 38.9964 9.07641 38.8743 9.57493C38.8728 9.58085 38.8714 9.58701 38.8701 9.59282L37.0605 17.2426L31.6864 22.6167C31.5559 22.7432 31.4653 22.905 31.4259 23.0826L26.7648 44.8254L22.1037 23.0826C22.0681 22.9066 21.9823 22.7448 21.8566 22.6167L16.4689 17.2426L14.6867 9.59282C14.5854 9.11379 14.1295 8.79574 13.6448 8.86596L13.6449 8.86585Z" fill="#FF0000"/>
<path d="M26.4472 14.3291C27.048 14.3291 27.5202 14.8093 27.5202 15.4102C27.5202 16.011 27.0477 16.4832 26.4472 16.4832C25.8464 16.4832 25.3662 16.011 25.3662 15.4102C25.3662 14.8093 25.8463 14.3291 26.4472 14.3291Z" fill="black"/>
<path d="M4.95325 8.41327V10.264H31.7014V8.41327H4.95325Z" fill="#FF0000"/>
<path d="M33.1903 8.41327V10.264H35.764V8.41327H33.1903Z" fill="#FF0000"/>
</g>
<defs>
<linearGradient id="paint0_linear_623_2234" x1="59.6298" y1="28.0244" x2="233.63" y2="28.0244" gradientUnits="userSpaceOnUse">
<stop stop-color="white"/>
<stop offset="0.535" stop-color="white"/>
<stop offset="0.54" stop-color="#FF0000"/>
<stop offset="1" stop-color="#FF0000"/>
<stop offset="1" stop-color="#FF0000"/>
</linearGradient>
<clipPath id="clip0_623_2234">
<rect width="52" height="52" fill="white" transform="translate(0.772339 0.524445)"/>
</clipPath>
</defs>
</svg>
