<svg width="31" height="30" viewBox="0 0 31 30" fill="none" xmlns="http://www.w3.org/2000/svg">
<path d="M15.9587 9.22119C14.4258 9.22119 12.9556 9.83015 11.8716 10.9141C10.7877 11.9981 10.1787 13.4682 10.1787 15.0012C10.1787 16.5341 10.7877 18.0043 11.8716 19.0883C12.9556 20.1722 14.4258 20.7812 15.9587 20.7812C17.4917 20.7812 18.9618 20.1722 20.0458 19.0883C21.1297 18.0043 21.7387 16.5341 21.7387 15.0012C21.7387 13.4682 21.1297 11.9981 20.0458 10.9141C18.9618 9.83015 17.4917 9.22119 15.9587 9.22119V9.22119ZM15.9587 18.7549C14.9628 18.7549 14.0077 18.3593 13.3035 17.6551C12.5993 16.9509 12.2037 15.9958 12.2037 14.9999C12.2037 14.0041 12.5993 13.049 13.3035 12.3448C14.0077 11.6406 14.9628 11.2449 15.9587 11.2449C16.9546 11.2449 17.9097 11.6406 18.6139 12.3448C19.3181 13.049 19.7137 14.0041 19.7137 14.9999C19.7137 15.9958 19.3181 16.9509 18.6139 17.6551C17.9097 18.3593 16.9546 18.7549 15.9587 18.7549V18.7549Z" fill="white"/>
<path d="M21.9676 10.3561C22.7118 10.3561 23.3151 9.75284 23.3151 9.00863C23.3151 8.26443 22.7118 7.66113 21.9676 7.66113C21.2234 7.66113 20.6201 8.26443 20.6201 9.00863C20.6201 9.75284 21.2234 10.3561 21.9676 10.3561Z" fill="white"/>
<path d="M26.6262 7.63885C26.3368 6.89157 25.8946 6.21295 25.3278 5.64642C24.7611 5.07989 24.0823 4.63794 23.3349 4.34885C22.4603 4.02054 21.5364 3.84302 20.6024 3.82385C19.3987 3.77135 19.0174 3.75635 15.9649 3.75635C12.9124 3.75635 12.5212 3.75635 11.3274 3.82385C10.3941 3.84204 9.47085 4.0196 8.5974 4.34885C7.84982 4.6376 7.17086 5.07944 6.60407 5.64601C6.03728 6.21258 5.59519 6.89138 5.30615 7.63885C4.97778 8.51336 4.80067 9.43739 4.7824 10.3713C4.72865 11.5738 4.7124 11.9551 4.7124 15.0088C4.7124 18.0613 4.7124 18.4501 4.7824 19.6463C4.80115 20.5813 4.9774 21.5038 5.30615 22.3801C5.596 23.1273 6.03852 23.8058 6.60545 24.3723C7.17237 24.9388 7.85123 25.3808 8.59865 25.6701C9.47044 26.0116 10.3941 26.2018 11.3299 26.2326C12.5337 26.2851 12.9149 26.3013 15.9674 26.3013C19.0199 26.3013 19.4112 26.3013 20.6049 26.2326C21.5388 26.2136 22.4627 26.0365 23.3374 25.7088C24.0846 25.4191 24.7632 24.9767 25.3299 24.4101C25.8965 23.8434 26.3389 23.1648 26.6287 22.4176C26.9574 21.5426 27.1337 20.6201 27.1524 19.6851C27.2062 18.4826 27.2224 18.1013 27.2224 15.0476C27.2224 11.9938 27.2224 11.6063 27.1524 10.4101C27.1379 9.46294 26.9598 8.52541 26.6262 7.63885V7.63885ZM25.1037 19.5538C25.0956 20.2742 24.9641 20.9879 24.7149 21.6638C24.5272 22.1499 24.2398 22.5913 23.8712 22.9597C23.5027 23.328 23.0611 23.6152 22.5749 23.8026C21.9064 24.0507 21.2004 24.1821 20.4874 24.1913C19.2999 24.2463 18.9649 24.2601 15.9199 24.2601C12.8724 24.2601 12.5612 24.2601 11.3512 24.1913C10.6386 24.1826 9.93281 24.0511 9.2649 23.8026C8.77701 23.6163 8.33365 23.3297 7.96351 22.9613C7.59338 22.5929 7.3047 22.1509 7.11615 21.6638C6.87046 20.9952 6.73904 20.2899 6.7274 19.5776C6.67365 18.3901 6.66115 18.0551 6.66115 15.0101C6.66115 11.9638 6.66115 11.6526 6.7274 10.4413C6.73548 9.72138 6.86697 9.00812 7.11615 8.3326C7.4974 7.34635 8.27865 6.5701 9.2649 6.1926C9.93314 5.94527 10.6387 5.8138 11.3512 5.80385C12.5399 5.7501 12.8737 5.7351 15.9199 5.7351C18.9662 5.7351 19.2787 5.7351 20.4874 5.80385C21.2004 5.81243 21.9066 5.94394 22.5749 6.1926C23.0611 6.38044 23.5026 6.66785 23.8711 7.03639C24.2397 7.40492 24.5271 7.84644 24.7149 8.3326C24.9606 9.00128 25.092 9.70655 25.1037 10.4188C25.1574 11.6076 25.1712 11.9413 25.1712 14.9876C25.1712 18.0326 25.1712 18.3601 25.1174 19.5551H25.1037V19.5538Z" fill="white"/>
</svg>
