<svg width="31" height="31" viewBox="0 0 31 31" fill="none" xmlns="http://www.w3.org/2000/svg">
<g clip-path="url(#clip0_623_2256)">
<path d="M15.7578 3.37724C19.7628 3.37724 20.2378 3.39224 21.8191 3.46474C23.4541 3.53974 25.1378 3.91224 26.3291 5.10349C27.5316 6.30599 27.8928 7.97349 27.9678 9.61349C28.0403 11.1947 28.0553 11.6697 28.0553 15.6747C28.0553 19.6797 28.0403 20.1547 27.9678 21.736C27.8941 23.3622 27.5128 25.0622 26.3291 26.246C25.1266 27.4485 23.4603 27.8097 21.8191 27.8847C20.2378 27.9572 19.7628 27.9722 15.7578 27.9722C11.7528 27.9722 11.2778 27.9572 9.69656 27.8847C8.08281 27.811 6.36031 27.421 5.18656 26.246C3.99031 25.0497 3.62281 23.366 3.54781 21.736C3.47531 20.1547 3.46031 19.6797 3.46031 15.6747C3.46031 11.6697 3.47531 11.1947 3.54781 9.61349C3.62156 7.99349 4.00656 6.28349 5.18656 5.10349C6.38656 3.90349 8.06031 3.53974 9.69656 3.46474C11.2778 3.39224 11.7528 3.37724 15.7578 3.37724ZM15.7578 0.674744C11.6841 0.674744 11.1728 0.692244 9.57281 0.764744C7.25406 0.870994 4.95156 1.51599 3.27531 3.19224C1.59281 4.87474 0.954062 7.17224 0.847812 9.48974C0.775312 11.0897 0.757812 11.601 0.757812 15.6747C0.757812 19.7485 0.775312 20.2597 0.847812 21.8597C0.954062 24.176 1.60156 26.4847 3.27531 28.1572C4.95656 29.8385 7.25781 30.4785 9.57281 30.5847C11.1728 30.6572 11.6841 30.6747 15.7578 30.6747C19.8316 30.6747 20.3428 30.6572 21.9428 30.5847C24.2603 30.4785 26.5653 29.8322 28.2403 28.1572C29.9241 26.4735 30.5616 24.1772 30.6678 21.8597C30.7403 20.2597 30.7578 19.7485 30.7578 15.6747C30.7578 11.601 30.7403 11.0897 30.6678 9.48974C30.5616 7.17099 29.9153 4.86724 28.2403 3.19224C26.5616 1.51349 24.2541 0.869744 21.9428 0.764744C20.3428 0.692244 19.8316 0.674744 15.7578 0.674744Z" fill="white"/>
<path d="M15.7579 7.97223C11.5042 7.97223 8.05542 11.421 8.05542 15.6747C8.05542 19.9285 11.5042 23.3772 15.7579 23.3772C20.0117 23.3772 23.4604 19.9285 23.4604 15.6747C23.4604 11.421 20.0117 7.97223 15.7579 7.97223ZM15.7579 20.6747C12.9967 20.6747 10.7579 18.436 10.7579 15.6747C10.7579 12.9135 12.9967 10.6747 15.7579 10.6747C18.5192 10.6747 20.7579 12.9135 20.7579 15.6747C20.7579 18.436 18.5192 20.6747 15.7579 20.6747Z" fill="white"/>
<path d="M23.7653 9.46725C24.7594 9.46725 25.5653 8.66136 25.5653 7.66725C25.5653 6.67314 24.7594 5.86725 23.7653 5.86725C22.7712 5.86725 21.9653 6.67314 21.9653 7.66725C21.9653 8.66136 22.7712 9.46725 23.7653 9.46725Z" fill="white"/>
</g>
<defs>
<clipPath id="clip0_623_2256">
<rect width="30" height="30" fill="white" transform="translate(0.757812 0.674744)"/>
</clipPath>
</defs>
</svg>
