<svg width="31" height="31" viewBox="0 0 31 31" fill="none" xmlns="http://www.w3.org/2000/svg">
<path d="M15.7578 0.674744C7.47293 0.674744 0.757812 7.38986 0.757812 15.6747C0.757812 23.9596 7.47293 30.6747 15.7578 30.6747C24.0427 30.6747 30.7578 23.9596 30.7578 15.6747C30.7578 7.38986 24.0427 0.674744 15.7578 0.674744ZM11.188 23.541H7.53397V11.7939H11.188V23.541ZM9.35665 10.1806C8.18804 10.1806 7.23746 9.22998 7.23746 8.06137C7.23746 6.89277 8.18804 5.94219 9.35665 5.94219C10.5253 5.94219 11.4758 6.89277 11.4758 8.06137C11.4758 9.22998 10.5253 10.1806 9.35665 10.1806ZM24.8537 23.541H21.2084V17.8288C21.2084 16.4683 21.1822 14.7154 19.3072 14.7154C17.4061 14.7154 17.1183 16.198 17.1183 17.7329V23.5497H13.4729V11.7939H16.9787V13.3986H17.0223C17.7375 12.1776 19.063 11.4451 20.4758 11.4974C24.1735 11.4974 24.8537 13.9306 24.8537 17.0963V23.541Z" fill="white"/>
</svg>
