<svg width="65" height="61" viewBox="0 0 65 61" fill="none" xmlns="http://www.w3.org/2000/svg">
<path d="M32.1597 60.5294C33.2005 60.2852 33.6252 60.0521 34.2301 59.3933C35.085 58.4642 35.2135 58.0768 35.2063 56.4522C35.201 54.7921 34.908 53.7326 33.8608 51.548L33.2609 50.2964H31.2329C29.3801 50.3014 29.1128 50.2409 28.1369 49.9301C26.5337 49.375 24.8941 48.2011 24.0058 46.9701L23.6128 46.4262L22.5373 47.5551C21.3914 48.7584 20.3544 49.4422 18.8583 49.9811C17.6614 50.414 14.893 50.4196 13.3664 49.9811C9.86864 49.0059 7.40447 46.1553 6.51856 42.0592C6.41644 41.5874 5.89442 37.3398 5.35891 32.6226C4.82356 27.9054 4.36905 24.0624 4.34932 24.0829C4.22516 24.2106 2.73419 30.0667 2.24028 32.3667C-0.130308 43.4068 -0.100584 50.9224 2.33112 55.3111C3.32625 57.1066 5.27028 58.5408 7.31009 58.9826C8.6296 59.2712 9.35818 59.2379 10.5005 58.8549C13.4746 57.8525 16.9426 58.019 23.2641 59.4671C28.1996 60.5983 30.5968 60.8791 32.1598 60.5106L32.1597 60.5294ZM46.9793 48.674C48.0546 48.4187 49.2561 47.912 50.092 47.358L50.7663 46.9085V33.9147V20.9209L52.1165 20.8265C52.859 20.771 53.4845 20.7488 53.5063 20.771C53.5278 20.771 53.5902 26.626 53.6445 33.7304L53.7428 46.6482L54.2449 46.8535C55.71 47.4591 59.1269 47.5129 60.5286 46.9534C62.6839 46.0926 64.1818 44.0823 64.8053 41.2144C64.9483 40.5562 64.9849 37.993 64.9849 28.6691L64.9846 16.9513L64.6836 15.8485C64.0064 13.3658 62.4971 10.9004 60.8826 9.63827C59.1033 8.24792 57.5266 7.78336 54.5889 7.78336H52.8275L52.0306 6.94416C51.5926 6.48348 50.8991 5.83576 50.4901 5.50718C47.5142 3.11778 43.5481 2.48838 39.643 3.78493L38.4517 4.179L38.1055 3.74053C36.9828 2.31688 35.4773 1.25011 33.7443 0.650125C32.7796 0.317107 32.4826 0.278255 30.6737 0.272705C28.4204 0.272705 27.6011 0.433663 25.9754 1.22513C24.7835 1.80625 23.7312 2.54166 22.5648 3.60954L21.6653 4.43265L20.629 4.23284C19.2473 3.96087 15.4347 3.92757 14.4526 4.17733C13.3964 4.44375 11.1932 5.57656 10.1655 6.38247C9.24756 7.10234 8.23411 8.36503 7.71542 9.43568C6.96136 10.992 6.44224 13.4757 6.44224 15.5266C6.44224 16.2131 7.0623 22.1919 7.84953 29.0954C9.36146 42.3533 9.36307 42.3633 10.3394 44.1472C11.2043 45.7268 12.7 46.8502 14.4338 47.2221C14.8369 47.3109 15.7719 47.3553 16.5118 47.322C17.7069 47.2665 17.9559 47.2165 18.7429 46.8113C19.8901 46.223 21.018 45.0608 21.5702 43.898L21.9959 43.0016V29.6293V16.257L21.5767 15.3423L21.1574 14.4282L22.1306 13.4302C22.6659 12.8807 23.1665 12.4717 23.2432 12.5211C23.5232 12.6987 24.3141 14.2139 24.6181 15.1541L24.9304 16.1188L24.9986 29.4223C25.0594 41.1811 25.0922 42.7924 25.2808 43.2997C25.8722 44.8854 26.9793 46.1231 28.4416 46.8335C29.2376 47.2221 29.501 47.2776 30.7693 47.322C33.0939 47.4052 34.9696 46.9334 35.9652 46.0016L36.4818 45.5187V31.6801V17.841H37.883H39.2842L39.3164 32.5576L39.3487 47.2742L40.35 47.7904C40.9007 48.0735 41.7118 48.4032 42.1523 48.5231C43.28 48.8283 45.9456 48.906 46.9765 48.6618L46.9793 48.674Z" fill="white"/>
</svg>
