<svg width="36" height="36" viewBox="0 0 36 36" fill="none" xmlns="http://www.w3.org/2000/svg">
<path d="M28.7017 25.2563C28.0187 24.602 27.3539 23.929 26.7081 23.2379C26.1656 22.6867 25.839 22.2856 25.839 22.2856L21.7556 20.3358C23.3904 18.4818 24.2926 16.095 24.2931 13.6231C24.2931 7.99542 19.714 3.41479 14.0848 3.41479C8.45563 3.41479 3.87646 7.99542 3.87646 13.6231C3.87646 19.2508 8.45563 23.8315 14.0848 23.8315C16.6558 23.8315 18.9994 22.869 20.7975 21.2954L22.7473 25.3788C22.7473 25.3788 23.1483 25.7054 23.6996 26.2479C24.264 26.7773 25.0063 27.4933 25.7179 28.2415L27.6983 30.2715L28.5792 31.2135L31.6723 28.1204L30.7302 27.2396C30.1775 26.6971 29.4396 25.9767 28.7017 25.2563V25.2563ZM14.0848 20.9148C10.0642 20.9148 6.79313 17.6438 6.79313 13.6231C6.79313 9.6025 10.0642 6.33146 14.0848 6.33146C18.1054 6.33146 21.3765 9.6025 21.3765 13.6231C21.3765 17.6438 18.1054 20.9148 14.0848 20.9148Z" fill="white"/>
</svg>
