<svg width="31" height="30" viewBox="0 0 31 30" fill="none" xmlns="http://www.w3.org/2000/svg">
<g clip-path="url(#clip0_623_1877)">
<path d="M10.3837 28.1251C21.705 28.1251 27.8981 18.7445 27.8981 10.6238C27.8981 10.3613 27.8981 10.0951 27.8868 9.83258C29.0926 8.95974 30.1332 7.87911 30.96 6.64133C29.8337 7.13792 28.6401 7.46521 27.4181 7.61258C28.7053 6.84315 29.6694 5.63252 30.1312 4.2057C28.9218 4.92219 27.5981 5.42515 26.2181 5.69258C25.2903 4.7045 24.0626 4.04992 22.7251 3.83025C21.3876 3.61057 20.0151 3.83806 18.82 4.47746C17.6249 5.11687 16.674 6.13251 16.1146 7.36707C15.5551 8.60163 15.4184 9.9862 15.7256 11.3063C13.2782 11.1836 10.884 10.5478 8.69817 9.44022C6.51234 8.33261 4.58374 6.77791 3.03746 4.87695C2.25247 6.23273 2.01291 7.83645 2.36742 9.36245C2.72193 10.8884 3.64394 12.2223 4.94621 13.0932C3.97035 13.06 3.01594 12.798 2.15996 12.3282V12.4126C2.16164 13.8329 2.65366 15.209 3.55285 16.3084C4.45204 17.4078 5.70324 18.163 7.09496 18.4463C6.5667 18.5919 6.02102 18.6644 5.47309 18.662C5.08681 18.6631 4.7013 18.6273 4.32184 18.5551C4.71519 19.7777 5.4811 20.8466 6.5123 21.6122C7.5435 22.3778 8.78834 22.8017 10.0725 22.8245C7.891 24.5378 5.19634 25.4671 2.42246 25.4626C1.93369 25.4646 1.44525 25.4365 0.959961 25.3782C3.7753 27.1731 7.04489 28.1261 10.3837 28.1251V28.1251Z" fill="white"/>
</g>
<defs>
<clipPath id="clip0_623_1877">
<rect width="30" height="30" fill="white" transform="translate(0.959961)"/>
</clipPath>
</defs>
</svg>
