<svg width="36" height="36" viewBox="0 0 36 36" fill="none" xmlns="http://www.w3.org/2000/svg">
<path d="M30.4995 0.714355H5.99951C4.60713 0.714355 3.27177 1.26748 2.2872 2.25205C1.30264 3.23661 0.749512 4.57197 0.749512 5.96436V30.4644C0.749512 31.8567 1.30264 33.1921 2.2872 34.1767C3.27177 35.1612 4.60713 35.7144 5.99951 35.7144H30.4995C31.8919 35.7144 33.2273 35.1612 34.2118 34.1767C35.1964 33.1921 35.7495 31.8567 35.7495 30.4644V5.96436C35.7495 4.57197 35.1964 3.23661 34.2118 2.25205C33.2273 1.26748 31.8919 0.714355 30.4995 0.714355ZM32.2495 30.4644C32.2495 30.9285 32.0651 31.3736 31.7369 31.7018C31.4088 32.03 30.9636 32.2144 30.4995 32.2144H5.99951C5.53538 32.2144 5.09026 32.03 4.76208 31.7018C4.43389 31.3736 4.24951 30.9285 4.24951 30.4644V5.96436C4.24951 5.50023 4.43389 5.05511 4.76208 4.72692C5.09026 4.39873 5.53538 4.21436 5.99951 4.21436H30.4995C30.9636 4.21436 31.4088 4.39873 31.7369 4.72692C32.0651 5.05511 32.2495 5.50023 32.2495 5.96436V30.4644ZM26.9995 12.9644H23.4995V9.46436C23.4995 9.00023 23.3151 8.55511 22.9869 8.22692C22.6588 7.89873 22.2136 7.71436 21.7495 7.71436H14.7495C14.2854 7.71436 13.8403 7.89873 13.5121 8.22692C13.1839 8.55511 12.9995 9.00023 12.9995 9.46436V12.9644H9.49951C9.03538 12.9644 8.59026 13.1487 8.26208 13.4769C7.93389 13.8051 7.74951 14.2502 7.74951 14.7144V21.7144C7.74951 22.1785 7.93389 22.6236 8.26208 22.9518C8.59026 23.28 9.03538 23.4644 9.49951 23.4644H12.9995V26.9644C12.9995 27.4285 13.1839 27.8736 13.5121 28.2018C13.8403 28.53 14.2854 28.7144 14.7495 28.7144H21.7495C22.2136 28.7144 22.6588 28.53 22.9869 28.2018C23.3151 27.8736 23.4995 27.4285 23.4995 26.9644V23.4644H26.9995C27.4636 23.4644 27.9088 23.28 28.2369 22.9518C28.5651 22.6236 28.7495 22.1785 28.7495 21.7144V14.7144C28.7495 14.2502 28.5651 13.8051 28.2369 13.4769C27.9088 13.1487 27.4636 12.9644 26.9995 12.9644ZM25.2495 19.9644H21.7495C21.2854 19.9644 20.8403 20.1487 20.5121 20.4769C20.1839 20.8051 19.9995 21.2502 19.9995 21.7144V25.2144H16.4995V21.7144C16.4995 21.2502 16.3151 20.8051 15.9869 20.4769C15.6588 20.1487 15.2136 19.9644 14.7495 19.9644H11.2495V16.4644H14.7495C15.2136 16.4644 15.6588 16.28 15.9869 15.9518C16.3151 15.6236 16.4995 15.1785 16.4995 14.7144V11.2144H19.9995V14.7144C19.9995 15.1785 20.1839 15.6236 20.5121 15.9518C20.8403 16.28 21.2854 16.4644 21.7495 16.4644H25.2495V19.9644Z" fill="white"/>
</svg>
